<svg width="58" height="58" viewBox="0 0 58 58" fill="none" xmlns="http://www.w3.org/2000/svg">
<g clip-path="url(#clip0_68845_148)">
<path d="M10.2708 4.67489e-06H47.7292C49.0783 -0.00129951 50.4145 0.270285 51.6611 0.799216C52.9078 1.32815 54.0406 2.10404 54.9946 3.08249C55.9486 4.06094 56.7051 5.22273 57.2208 6.50139C57.7365 7.78005 58.0013 9.15046 58 10.5342V47.4658C58.0013 48.8495 57.7365 50.22 57.2208 51.4986C56.7051 52.7773 55.9486 53.9391 54.9946 54.9175C54.0406 55.896 52.9078 56.6719 51.6611 57.2008C50.4145 57.7297 49.0783 58.0013 47.7292 58H10.2708C8.9217 58.0013 7.58554 57.7297 6.33886 57.2008C5.09217 56.6719 3.95941 55.896 3.00543 54.9175C2.05144 53.9391 1.29494 52.7773 0.779235 51.4986C0.263528 50.22 -0.00126702 48.8495 4.55802e-06 47.4658V10.5342C-0.00126702 9.15046 0.263528 7.78005 0.779235 6.50139C1.29494 5.22273 2.05144 4.06094 3.00543 3.08249C3.95941 2.10404 5.09217 1.32815 6.33886 0.799216C7.58554 0.270285 8.9217 -0.00129951 10.2708 4.67489e-06V4.67489e-06Z" fill="#2965F1"/>
<path d="M14.197 23.9098L14.7677 30.2783H29.0191V23.9098H14.197ZM13.05 11.02L13.6289 17.3885H29.0191V11.02H13.05V11.02ZM29.0191 40.4494L28.9912 40.4568L21.8987 38.5417L21.4453 33.4626H15.0523L15.9444 43.462L28.9898 47.0832L29.0191 47.0753V40.4494Z" fill="#EBEBEB"/>
<path d="M43.8005 23.9098L44.95 11.02H28.9971V17.3885H37.9708L37.3914 23.9098H28.9971V30.2783H36.8392L36.0998 38.5377L28.9969 40.4548V47.0802L42.0527 43.462L42.1484 42.386L43.6451 25.6199L43.8005 23.9098V23.9098Z" fill="white"/>
</g>
<defs>
<clipPath id="clip0_68845_148">
<rect width="58" height="58" fill="white"/>
</clipPath>
</defs>
</svg>
