<svg width="58" height="58" viewBox="0 0 58 58" fill="none" xmlns="http://www.w3.org/2000/svg">
<path d="M48.9375 0H9.0625C4.05742 0 0 4.05742 0 9.0625V48.9375C0 53.9426 4.05742 58 9.0625 58H48.9375C53.9426 58 58 53.9426 58 48.9375V9.0625C58 4.05742 53.9426 0 48.9375 0Z" fill="#231E1B"/>
<path fill-rule="evenodd" clip-rule="evenodd" d="M28.9557 14.8479C20.974 14.8479 14.5 21.3219 14.5 29.3036C14.5 35.6889 18.6682 41.0987 24.344 43.0497C25.0535 43.1384 25.3196 42.695 25.3196 42.3403C25.3196 41.9855 25.3196 41.0987 25.3196 39.8571C21.3287 40.7439 20.4419 37.906 20.4419 37.906C19.8211 36.221 18.8456 35.7776 18.8456 35.7776C17.5153 34.8907 18.9343 34.8907 18.9343 34.8907C20.3532 34.9794 21.1514 36.3984 21.1514 36.3984C22.4817 38.6155 24.5214 37.9947 25.3196 37.64C25.4083 36.6644 25.8517 36.0436 26.2064 35.6889C23.0138 35.3341 19.6437 34.0925 19.6437 28.5054C19.6437 26.9091 20.1758 25.6675 21.1514 24.6033C21.0627 24.3372 20.5306 22.8296 21.3287 20.8785C21.3287 20.8785 22.5703 20.5237 25.3196 22.3861C26.4725 22.0314 27.7141 21.9427 28.9557 21.9427C30.1972 21.9427 31.4388 22.1201 32.5917 22.3861C35.341 20.5237 36.5826 20.8785 36.5826 20.8785C37.3807 22.8296 36.8486 24.3372 36.7599 24.6919C37.6468 25.6675 38.2676 26.9977 38.2676 28.5941C38.2676 34.1812 34.8976 35.3341 31.7049 35.6889C32.237 36.1323 32.6804 37.0192 32.6804 38.3494C32.6804 40.3005 32.6804 41.8081 32.6804 42.3403C32.6804 42.695 32.9465 43.1384 33.656 43.0497C39.4205 41.0987 43.5 35.6889 43.5 29.3036C43.4113 21.3219 36.9373 14.8479 28.9557 14.8479Z" fill="white"/>
</svg>
