<svg width="90" height="90" viewBox="0 0 90 90" fill="none" xmlns="http://www.w3.org/2000/svg">
<path d="M55 33.5L45 27.772L35 22V45L45 39.228L55 33.5Z" fill="#8A0E13"/>
<path d="M34.9778 45.3478L44.9889 39.6522L55 34V56.6522L44.9889 51L34.9778 45.3478ZM15 56.6522L25.0111 51L34.9778 45.3478V68L25.0111 62.3478L15 56.6522Z" fill="#AE0917"/>
<path d="M55 78.7716L45 73.1142L35 67.5V90L45 84.3858L55 78.7716ZM55 56.2284L45 50.6142L35 45V67.5L45 61.8858L55 56.2284Z" fill="#E1001A"/>
<path d="M35 67.5L45 61.772L55 56V79L45 73.228L35 67.5Z" fill="#AE0917"/>
<path d="M35 22.4779L45 16.739L55 11V34L45 28.261L35 22.4779Z" fill="#650D0D"/>
<path d="M35 45.0211L25.0222 39.4894L15 34V56L25.0222 50.5106L35 45.0211Z" fill="#8A0E13"/>
<path d="M15 33.5L25.0222 27.772L35 22V45L25.0222 39.228L15 33.5Z" fill="#650D0D"/>
<path d="M75 22.4779L65.0222 16.739L55 11V34L65.0222 28.261L75 22.4779Z" fill="#8A0E13"/>
<path d="M55 11.0211L65.0222 5.48944L75 0V22L65.0222 16.5106L55 11.0211Z" fill="#650D0D"/>
</svg>
