<svg width="58" height="58" viewBox="0 0 58 58" fill="none" xmlns="http://www.w3.org/2000/svg">
<g clip-path="url(#clip0_68845_140)">
<path d="M10.2708 4.67489e-06H47.7292C49.0783 -0.00129951 50.4145 0.270285 51.6611 0.799216C52.9078 1.32815 54.0406 2.10404 54.9946 3.08249C55.9486 4.06094 56.7051 5.22273 57.2208 6.50139C57.7365 7.78005 58.0013 9.15046 58 10.5342V47.4658C58.0013 48.8495 57.7365 50.22 57.2208 51.4986C56.7051 52.7773 55.9486 53.9391 54.9946 54.9175C54.0406 55.896 52.9078 56.6719 51.6611 57.2008C50.4145 57.7297 49.0783 58.0013 47.7292 58H10.2708C8.92169 58.0013 7.58554 57.7297 6.33886 57.2008C5.09217 56.6719 3.95941 55.896 3.00543 54.9175C2.05144 53.9391 1.29494 52.7773 0.779235 51.4986C0.263528 50.22 -0.00126702 48.8495 4.55802e-06 47.4658V10.5342C-0.00126702 9.15046 0.263528 7.78005 0.779235 6.50139C1.29494 5.22273 2.05144 4.06094 3.00543 3.08249C3.95941 2.10404 5.09217 1.32815 6.33886 0.799216C7.58554 0.270285 8.92169 -0.00129951 10.2708 4.67489e-06V4.67489e-06Z" fill="#F7DF1E"/>
<path d="M39.0599 45.3826C40.2282 47.2901 41.7481 48.6923 44.4364 48.6923C46.6947 48.6923 48.1374 47.5636 48.1374 46.004C48.1374 44.1351 46.6551 43.4732 44.1694 42.3859L42.8069 41.8013C38.8739 40.1258 36.2612 38.0267 36.2612 33.5893C36.2612 29.5016 39.3757 26.3899 44.2431 26.3899C47.7083 26.3899 50.1996 27.5959 51.9948 30.7537L47.7507 33.4788C46.8162 31.8032 45.8081 31.1431 44.2431 31.1431C42.6467 31.1431 41.6349 32.1558 41.6349 33.4788C41.6349 35.1138 42.6476 35.7758 44.986 36.7885L46.3486 37.3721C50.9794 39.358 53.594 41.3824 53.594 45.934C53.594 50.841 49.7393 53.5293 44.5625 53.5293C39.5009 53.5293 36.2308 51.1172 34.6307 47.9558L39.0599 45.3826ZM19.8067 45.8549C20.6628 47.3739 21.4417 48.6582 23.3143 48.6582C25.1049 48.6582 26.2345 47.9576 26.2345 45.2334V26.7011H31.6847V45.3071C31.6847 50.9506 28.3759 53.5192 23.5463 53.5192C19.1825 53.5192 16.6553 51.2608 15.3701 48.5408L19.8067 45.8549Z" fill="black"/>
</g>
<defs>
<clipPath id="clip0_68845_140">
<rect width="58" height="58" fill="white"/>
</clipPath>
</defs>
</svg>
