<svg width="160" height="89" viewBox="0 0 160 89" fill="none" xmlns="http://www.w3.org/2000/svg">
<g clip-path="url(#clip0_68839_5)">
<path d="M30.6296 26.7068L22.9637 22.2671L15.2979 17.7932V35.6205L22.9637 31.1466L30.6296 26.7068Z" fill="#8A0E13"/>
<path d="M15.2979 35.6205L22.9637 31.1466L30.6296 26.7068V44.5L22.9637 40.0602L15.2979 35.6205ZM0 44.5L7.66589 40.0602L15.2979 35.6205V53.4136L7.66589 48.9739L0 44.5Z" fill="#AE0917"/>
<path d="M30.6296 62.3273L22.9637 57.8534L15.2979 53.4136V71.2068L22.9637 66.7671L30.6296 62.3273ZM30.6296 44.5L22.9637 40.0602L15.2979 35.6205V53.4136L22.9637 48.9739L30.6296 44.5Z" fill="#E1001A"/>
<path d="M15.2979 53.4137L22.9637 48.9739L30.6296 44.5V62.3273L22.9637 57.8534L15.2979 53.4137Z" fill="#AE0917"/>
<path d="M15.2979 17.7932L22.9637 13.3534L30.6296 8.91367V26.7068L22.9637 22.2671L15.2979 17.7932Z" fill="#650D0D"/>
<path d="M15.2979 35.6205L7.66589 31.1466L0 26.7068V44.5L7.66589 40.0602L15.2979 35.6205Z" fill="#8A0E13"/>
<path d="M0 26.7068L7.66589 22.2671L15.2979 17.7932V35.6205L7.66589 31.1466L0 26.7068Z" fill="#650D0D"/>
<path d="M45.9275 17.7932L38.2955 13.3534L30.6296 8.91367V26.7068L38.2955 22.2671L45.9275 17.7932Z" fill="#8A0E13"/>
<path d="M30.6296 8.91366L38.2955 4.43975L45.9275 0V17.7932L38.2955 13.3534L30.6296 8.91366Z" fill="#650D0D"/>
<path d="M44.2993 84.0821C46.1989 84.4919 47.1147 85.2091 47.1147 86.541C47.1147 88.0437 45.8936 89 44.1976 89C42.8408 89 41.7214 88.556 40.6699 87.5998L41.2805 86.8826C42.1624 87.7022 43.0443 88.112 44.2315 88.112C45.3848 88.112 46.131 87.4973 46.131 86.6435C46.131 85.8238 45.6901 85.3799 43.8923 85.0042C41.925 84.5602 41.0091 83.9113 41.0091 82.477C41.0091 81.1109 42.1963 80.1205 43.8245 80.1205C45.0795 80.1205 45.9614 80.462 46.8433 81.1792L46.2667 81.9305C45.4526 81.2816 44.6725 80.9743 43.7906 80.9743C42.6712 80.9743 41.9589 81.589 41.9589 82.3745C41.9589 83.2283 42.3998 83.6723 44.2993 84.0821ZM51.4564 88.8634H50.4728V80.2229H51.4564V88.8634ZM58.5457 84.0821C60.4452 84.4919 61.361 85.2091 61.361 86.541C61.361 88.0437 60.1399 89 58.41 89C57.0532 89 55.9339 88.556 54.8823 87.5998L55.4929 86.8826C56.3748 87.7022 57.2567 88.112 58.4439 88.112C59.5972 88.112 60.3434 87.4973 60.3434 86.6435C60.3434 85.8238 59.9025 85.3799 58.1047 85.0042C56.1374 84.5602 55.2215 83.9113 55.2215 82.477C55.2215 81.1109 56.4087 80.1205 58.0369 80.1205C59.2919 80.1205 60.1738 80.462 61.0558 81.1792L60.4791 81.9305C59.665 81.2816 58.8849 80.9743 58.003 80.9743C56.8836 80.9743 56.1713 81.589 56.1713 82.3745C56.2052 83.2283 56.6462 83.6723 58.5457 84.0821ZM68.6199 88.8634H67.6362V81.1109H64.753V80.2229H71.5031V81.1109H68.6199V88.8634ZM81.1363 81.1109H75.8787V84.048H80.5597V84.9359H75.8787V87.9754H81.1702V88.8634H74.8951V80.2229H81.1024V81.1109H81.1363ZM88.7344 86.5069H88.7005L85.5798 81.8964V88.8975H84.6301V80.2571H85.6137L88.7344 84.9701L91.855 80.2571H92.8387V88.8975H91.855V81.8964L88.7344 86.5069ZM105.016 88.8634H103.964L102.947 86.5752H98.2659L97.2483 88.8634H96.2646L100.165 80.1546H101.081L105.016 88.8634ZM100.64 81.2816L98.6729 85.6872H102.574L100.64 81.2816ZM112.071 84.0821C113.971 84.4919 114.887 85.2091 114.887 86.541C114.887 88.0437 113.665 89 111.936 89C110.579 89 109.459 88.556 108.408 87.5998L109.018 86.8826C109.9 87.7022 110.782 88.112 111.969 88.112C113.123 88.112 113.903 87.4973 113.903 86.6435C113.903 85.8238 113.462 85.3799 111.664 85.0042C109.697 84.5602 108.781 83.9113 108.781 82.477C108.781 81.1109 109.968 80.1205 111.596 80.1205C112.851 80.1205 113.733 80.462 114.615 81.1792L114.039 81.9305C113.225 81.2816 112.444 80.9743 111.562 80.9743C110.443 80.9743 109.731 81.589 109.731 82.3745C109.731 83.2283 110.206 83.6723 112.071 84.0821ZM69.2644 35.5522H58.8849V40.0261H69.2644C70.0445 40.0261 70.689 40.675 70.689 41.4605V44.4317H58.8849C55.6625 44.4317 53.0507 47.0614 53.0507 50.3058V56.4532C53.0507 59.6976 55.6625 62.3273 58.8849 62.3273H69.2644C72.4868 62.3273 75.0986 59.6976 75.0986 56.4532V41.4605C75.0986 38.1819 72.4868 35.5522 69.2644 35.5522ZM70.6551 56.419C70.6551 57.2045 70.0106 57.8534 69.2304 57.8534H58.851C58.0708 57.8534 57.4263 57.2045 57.4263 56.419V50.2717C57.4263 49.4862 58.0708 48.8373 58.851 48.8373H70.6551V56.419ZM139.105 35.5522H128.692C125.47 35.5522 122.858 38.1819 122.858 41.4263V56.419C122.858 59.6635 125.47 62.2932 128.692 62.2932H139.105V57.8192H128.692C127.912 57.8192 127.267 57.1704 127.267 56.3849V53.4136H139.071C142.294 53.4136 144.906 50.7839 144.906 47.5395V41.3922C144.94 38.1819 142.328 35.5522 139.105 35.5522ZM140.496 47.5737C140.496 48.3592 139.852 49.008 139.071 49.008H127.267V41.4605C127.267 40.675 127.912 40.0261 128.692 40.0261H139.105C139.886 40.0261 140.53 40.675 140.53 41.4605V47.5737H140.496ZM111.698 35.5522H101.319C98.0963 35.5522 95.4844 38.1819 95.4844 41.4263V56.4532C95.4844 59.6976 98.0963 62.3273 101.319 62.3273H113.123V65.2985C113.123 66.084 112.478 66.7329 111.698 66.7329H101.319V71.2068H111.698C114.921 71.2068 117.532 68.5771 117.532 65.3327V41.4605C117.532 38.1819 114.921 35.5522 111.698 35.5522ZM99.8601 56.4873V41.4605C99.8601 40.675 100.505 40.0261 101.285 40.0261H111.664C112.444 40.0261 113.089 40.675 113.089 41.4605V57.9217H101.285C100.538 57.8876 99.8601 57.2387 99.8601 56.4873ZM84.8336 41.4263V62.2932H80.3901V41.4263C80.3901 38.1819 83.0019 35.5522 86.2243 35.5522H90.0912V40.0261H86.2243C85.4781 40.0261 84.8336 40.675 84.8336 41.4263ZM51.2529 40.0261H45.9614V62.3273H41.5179V26.7068H45.9614V35.5522H51.2529V40.0261ZM160 40.0261H154.709V62.3273H150.265V26.7068H154.709V35.5522H160V40.0261Z" fill="#3D3D3F"/>
</g>
<defs>
<clipPath id="clip0_68839_5">
<rect width="160" height="89" fill="white"/>
</clipPath>
</defs>
</svg>
